<svg width="37" height="24" viewBox="0 0 37 24" fill="none" xmlns="http://www.w3.org/2000/svg">
<path d="M0 3C0 1.34315 1.34315 0 3 0H33C34.6569 0 36 1.34315 36 3V21C36 22.6569 34.6569 24 33 24H3C1.34315 24 0 22.6569 0 21V3Z" fill="#006FCE"/>
<path d="M36.148 14.0723L34.1152 16.2236L36.148 18.3848V19.9342L32.6349 16.2138L36.148 12.5427V14.0723Z" fill="white"/>
<path d="M29.7632 4.10526L31.4112 8.71382L33.0395 4.10526H36.148V3H32.25L31.3717 5.46711L30.5033 3H25.4704V6.26645L24.0197 3H19.9638L15.75 12.5329H19.1447V21H29.6645L31.3125 19.1842L32.9605 21H36.148V19.8947H33.4934L31.3322 17.5066L29.1513 19.8947H26.5658L30.0592 16.1941L26.5658 12.4934H29.2204L31.3717 14.8618L33.5329 12.4934H36.148V11.4671H34.1743V6.27632L32.2697 11.4671H30.4934L28.5888 6.28618V11.4671H24.2961L23.6743 10.0263H20.2697L19.6579 11.5066H17.4375L20.7039 4.10526H23.2993L26.5658 11.5066V4.10526H29.7632ZM20.2993 12.5724H26.5954V14.2895H22.2928V15.4441H26.4671V17.1118H22.2928V18.2664H26.5658V19.8947H20.2697L20.2993 12.5724Z" fill="white"/>
<path d="M32.6349 16.2138L36.148 19.9342H33.4934L31.3322 17.546L29.1513 19.9342H26.5658L30.0592 16.2335L26.5658 12.5427H29.2204L31.3717 14.9013L33.5329 12.5427H36.148L32.6349 16.2138Z" fill="#006FCE"/>
<path d="M22.2928 14.25V15.4046H26.4671V17.0723H22.2928V18.2269H26.5658V19.9342H20.2698V12.5427H26.5658V14.25H22.2928Z" fill="#006FCE"/>
<path d="M36.148 4.0658V11.4671H34.1546V6.27632L32.25 11.4671H30.4737L28.5691 6.28619V11.4671H26.5658V4.0658H29.7336L31.3816 8.67435L33.0395 4.0658H36.148Z" fill="#006FCE"/>
<path d="M23.2993 4.10529H20.7039L17.4375 11.5066H19.6579L20.2697 10.0263H23.6743L24.2961 11.5066H26.5658L23.2993 4.10529ZM20.9704 8.35858L21.9572 5.94081L22.9441 8.35858H20.9704Z" fill="#006FCE"/>
<path d="M22.9737 8.31907H20.9705L21.9672 5.90131L22.9737 8.31907Z" fill="white"/>
</svg>
